<?xml version="1.0" standalone="no"?>
<!DOCTYPE svg PUBLIC "-//W3C//DTD SVG 20010904//EN"
 "http://www.w3.org/TR/2001/REC-SVG-20010904/DTD/svg10.dtd">
<svg version="1.0" xmlns="http://www.w3.org/2000/svg"
 width="1000.000000pt" height="1000.000000pt" viewBox="0 0 1000.000000 1000.000000"
 preserveAspectRatio="xMidYMid meet">
<metadata>
Created by potrace 1.15, written by Peter Selinger 2001-2017
</metadata>
<g transform="translate(0.000000,1000.000000) scale(0.100000,-0.100000)"
fill="#000000" stroke="none">
<path d="M4865 9104 c-16 -2 -79 -9 -140 -15 -435 -44 -905 -178 -1323 -379
-1198 -577 -2042 -1694 -2266 -3002 -46 -263 -51 -337 -51 -703 0 -366 5 -440
51 -703 224 -1307 1069 -2425 2266 -3002 417 -200 841 -322 1328 -382 142 -18
768 -18 910 0 487 60 911 182 1328 382 1197 577 2042 1695 2266 3002 46 263
51 337 51 703 0 366 -5 440 -51 703 -291 1698 -1623 3039 -3316 3342 -253 45
-334 52 -683 55 -187 2 -353 1 -370 -1z m1521 -1525 c271 -70 480 -275 557
-546 21 -76 21 -94 25 -747 l3 -669 -26 -53 c-65 -133 -251 -146 -332 -22
l-28 42 -5 660 c-5 611 -6 665 -24 711 -10 28 -27 64 -37 81 -30 49 -105 113
-167 142 l-57 27 -1275 0 -1275 0 -57 -23 c-126 -51 -209 -166 -228 -317 -7
-54 -10 -640 -8 -1780 3 -1590 4 -1703 21 -1752 40 -117 131 -207 246 -243 58
-18 92 -20 420 -20 214 0 371 -4 393 -10 165 -46 189 -278 36 -354 l-52 -26
-390 0 c-455 0 -478 3 -635 81 -89 44 -118 65 -191 138 -148 147 -213 288
-231 500 -7 76 -9 736 -6 1832 4 1930 -3 1767 82 1945 52 108 150 219 255 289
83 55 141 81 245 111 l80 23 1291 0 c1272 1 1291 1 1370 -20z m-324 -1139
c169 -47 184 -287 23 -361 -38 -18 -90 -19 -1070 -19 -978 0 -1032 1 -1070 19
-147 67 -148 285 -2 352 40 18 81 19 1062 19 671 0 1033 -4 1057 -10z m21
-776 c81 -41 121 -109 115 -195 -5 -71 -41 -122 -107 -153 -46 -21 -49 -21
-1069 -24 l-1022 -2 -51 22 c-153 65 -155 281 -4 349 38 18 92 19 1073 19 932
0 1036 -2 1065 -16z m951 -694 c272 -69 441 -286 440 -565 -1 -109 -18 -186
-62 -270 -33 -63 -1145 -1185 -1207 -1217 -57 -30 -811 -238 -862 -238 -55 0
-91 14 -132 53 -41 40 -61 84 -61 138 0 51 222 785 257 851 30 54 1088 1114
1166 1167 143 97 295 124 461 81z m-1696 -93 c53 -34 82 -90 82 -157 0 -65
-18 -108 -63 -147 -61 -53 -82 -55 -762 -51 l-620 3 -47 27 c-135 80 -126 274
17 339 38 18 76 19 696 16 l655 -2 42 -28z"/>
<path d="M6825 4581 c-22 -10 -50 -29 -62 -43 l-23 -24 133 -132 133 -133 26
28 c31 32 58 91 58 125 0 81 -62 167 -135 187 -55 15 -84 13 -130 -8z"/>
<path d="M6135 3912 c-171 -169 -325 -326 -343 -349 -45 -58 -87 -152 -116
-263 -14 -52 -28 -106 -32 -119 -6 -20 -4 -23 12 -19 10 3 96 27 190 53 l172
48 348 348 349 349 -130 130 c-71 71 -132 130 -135 130 -3 -1 -145 -139 -315
-308z"/>
</g>
</svg>
