<svg xmlns="http://www.w3.org/2000/svg" viewBox="0 0 307 365"><title>prancheta</title><g id="Camada_2" data-name="Camada 2"><g id="Camada_1-2" data-name="Camada 1"><path d="M287,43V310.47A34.53,34.53,0,0,1,252.47,345H54.53A34.53,34.53,0,0,1,20,310.47V43H0V310.47A54.59,54.59,0,0,0,54.53,365H252.47A54.6,54.6,0,0,0,307,310.47V43Z"/><rect x="38.66" y="43" width="229.67" height="40"/><path d="M225.11,30.49C221.17,13.1,204.43,0,184.45,0H122.54c-20,0-36.71,13.1-40.65,30.49a35,35,0,0,0-.89,7.9V73H95V38.39a23.63,23.63,0,0,1,1.36-7.9c3.6-10.18,14-17.55,26.18-17.55h61.91c12.21,0,22.59,7.37,26.19,17.55a23.63,23.63,0,0,1,1.36,7.9V73h14V38.39A35,35,0,0,0,225.11,30.49Z"/></g></g></svg>