<?xml version="1.0" standalone="no"?>
<!DOCTYPE svg PUBLIC "-//W3C//DTD SVG 20010904//EN"
 "http://www.w3.org/TR/2001/REC-SVG-20010904/DTD/svg10.dtd">
<svg version="1.0" xmlns="http://www.w3.org/2000/svg"
 width="500.000000pt" height="500.000000pt" viewBox="0 0 500.000000 500.000000"
 preserveAspectRatio="xMidYMid meet">
<metadata>
Created by potrace 1.15, written by Peter Selinger 2001-2017
</metadata>
<g transform="translate(0.000000,500.000000) scale(0.100000,-0.100000)"
fill="#000000" stroke="none">
<path d="M2492 4708 c-17 -13 -41 -42 -53 -66 -20 -41 -21 -53 -17 -461 l3
-419 -180 -4 c-164 -3 -184 -5 -222 -25 -55 -30 -107 -84 -135 -142 l-23 -46
0 -505 0 -505 28 -57 c32 -64 80 -111 146 -142 41 -18 70 -21 251 -24 119 -2
210 -8 218 -14 8 -7 12 -47 12 -133 0 -105 -2 -124 -18 -138 -16 -15 -53 -17
-313 -17 -339 0 -367 -5 -443 -71 -26 -23 -58 -63 -71 -89 -13 -26 -31 -50
-40 -54 -9 -3 -47 -6 -84 -6 -104 0 -101 -8 -101 266 0 166 3 233 12 242 7 7
31 12 55 12 l43 0 0 70 0 70 -180 0 -180 0 0 -70 0 -70 43 0 c24 0 48 -5 55
-12 9 -9 12 -95 12 -325 l0 -313 143 0 c187 0 187 0 187 -120 l0 -88 433 -107
c237 -58 439 -113 447 -121 12 -12 15 -51 17 -204 1 -165 -1 -192 -15 -210
-14 -17 -105 -43 -447 -129 l-430 -107 -3 -117 -3 -117 71 0 70 0 0 53 c0 39
5 58 18 69 9 8 191 59 405 112 l387 96 388 -96 c213 -53 395 -104 405 -112 12
-11 17 -30 17 -69 l0 -54 68 3 67 3 0 114 0 115 -390 97 c-214 54 -402 100
-416 103 -57 11 -59 19 -59 241 0 198 1 204 22 219 12 8 207 61 435 117 l413
101 0 89 c0 119 0 119 187 119 l143 0 0 314 c0 240 3 316 13 324 7 6 30 12 52
14 l40 3 3 68 3 67 -181 0 -180 0 0 -70 0 -70 45 0 c34 0 47 -5 55 -19 6 -12
10 -108 10 -244 0 -265 3 -257 -102 -257 -85 0 -95 4 -118 51 -31 59 -78 108
-134 137 l-51 27 -323 5 c-272 4 -324 7 -332 20 -15 23 -13 255 3 268 7 6 98
12 217 14 181 3 210 6 251 24 66 31 114 78 146 142 l28 57 0 495 c0 559 1 551
-79 638 -74 80 -95 87 -306 90 l-185 3 0 432 c0 401 -1 434 -18 462 -32 51
-65 69 -137 73 -55 3 -70 0 -98 -20z m-67 -1088 c4 -6 3 -45 0 -87 -7 -65 -11
-78 -34 -97 -137 -111 -183 -194 -184 -336 -1 -105 26 -173 104 -255 52 -55
88 -70 106 -42 4 6 10 78 13 159 6 165 13 183 86 225 49 29 79 29 134 1 73
-37 90 -82 90 -243 0 -89 4 -135 12 -143 25 -25 56 -12 111 48 72 78 92 134
92 260 0 128 -27 188 -127 281 -75 71 -86 95 -87 202 l-1 39 169 -4 c185 -3
197 -7 245 -72 21 -27 21 -38 21 -519 l0 -492 -22 -31 c-46 -65 -41 -64 -565
-64 -521 0 -515 -1 -562 63 -20 28 -21 41 -24 505 -1 262 0 487 3 499 8 35 64
92 99 102 44 13 313 14 321 1z m906 -1773 c52 -35 69 -78 69 -177 0 -90 -4
-101 -35 -117 -11 -6 -190 -52 -397 -104 l-378 -94 -377 94 c-375 93 -411 104
-425 125 -14 20 -9 185 6 214 16 30 53 66 76 75 8 3 333 6 721 6 l706 1 34
-23z"/>
</g>
</svg>
