<?xml version="1.0" standalone="no"?>
<!DOCTYPE svg PUBLIC "-//W3C//DTD SVG 20010904//EN"
 "http://www.w3.org/TR/2001/REC-SVG-20010904/DTD/svg10.dtd">
<svg version="1.0" xmlns="http://www.w3.org/2000/svg"
 width="1000.000000pt" height="1000.000000pt" viewBox="0 0 1000.000000 1000.000000"
 preserveAspectRatio="xMidYMid meet">
<metadata>
Created by potrace 1.15, written by Peter Selinger 2001-2017
</metadata>
<g transform="translate(0.000000,1000.000000) scale(0.100000,-0.100000)"
fill="#000000" stroke="none">
<path d="M4855 9104 c-16 -2 -79 -9 -140 -15 -435 -44 -905 -178 -1323 -379
-1198 -577 -2042 -1694 -2266 -3002 -46 -263 -51 -337 -51 -703 0 -366 5 -440
51 -703 224 -1307 1069 -2425 2266 -3002 417 -200 841 -322 1328 -382 142 -18
768 -18 910 0 487 60 911 182 1328 382 1197 577 2042 1695 2266 3002 46 263
51 337 51 703 0 366 -5 440 -51 703 -291 1698 -1623 3039 -3316 3342 -253 45
-334 52 -683 55 -187 2 -353 1 -370 -1z m529 -1525 c14 -11 33 -33 41 -49 12
-23 278 -651 594 -1402 34 -80 69 -149 77 -152 8 -3 123 -15 257 -26 1074 -92
1406 -121 1430 -126 16 -3 44 -21 63 -40 29 -30 34 -42 34 -81 0 -78 18 -60
-870 -827 -228 -197 -421 -369 -427 -381 -11 -20 13 -133 177 -838 105 -447
190 -824 190 -836 0 -40 -27 -88 -65 -111 -73 -45 -56 -53 -831 416 -435 263
-721 430 -741 432 -27 3 -80 -25 -345 -186 -1005 -609 -1130 -682 -1165 -682
-81 0 -136 55 -136 135 0 22 84 401 187 843 103 441 184 811 181 821 -3 11
-31 41 -63 68 -396 337 -1202 1042 -1219 1066 -43 60 -19 154 48 188 27 14
188 31 804 83 963 83 903 77 919 90 8 6 159 355 336 775 177 420 328 775 337
788 36 54 136 72 187 32z"/>
</g>
</svg>
