<?xml version="1.0" standalone="no"?>
<!DOCTYPE svg PUBLIC "-//W3C//DTD SVG 20010904//EN"
 "http://www.w3.org/TR/2001/REC-SVG-20010904/DTD/svg10.dtd">
<svg version="1.0" xmlns="http://www.w3.org/2000/svg"
 width="1000.000000pt" height="1000.000000pt" viewBox="0 0 1000.000000 1000.000000"
 preserveAspectRatio="xMidYMid meet">
<metadata>
Created by potrace 1.15, written by Peter Selinger 2001-2017
</metadata>
<g transform="translate(0.000000,1000.000000) scale(0.100000,-0.100000)"
fill="#000000" stroke="none">
<path d="M4775 8734 c-16 -2 -79 -9 -140 -15 -435 -44 -905 -178 -1323 -379
-1198 -577 -2042 -1694 -2266 -3002 -46 -263 -51 -337 -51 -703 0 -366 5 -440
51 -703 224 -1307 1069 -2425 2266 -3002 417 -200 841 -322 1328 -382 142 -18
768 -18 910 0 487 60 911 182 1328 382 1197 577 2042 1695 2266 3002 46 263
51 337 51 703 0 366 -5 440 -51 703 -291 1698 -1623 3039 -3316 3342 -253 45
-334 52 -683 55 -187 2 -353 1 -370 -1z m1632 -1202 c58 -53 1005 -1130 1034
-1177 26 -41 25 -109 -2 -152 -37 -59 -66 -68 -229 -69 -80 0 -184 -1 -232 -2
l-88 -2 -2 -1447 -3 -1448 -577 -3 -578 -2 0 1449 0 1449 -237 4 c-217 3 -241
5 -272 23 -61 36 -91 134 -58 192 18 33 1031 1185 1063 1210 21 16 43 22 79
22 46 0 54 -4 102 -47z m-1030 -2302 c67 -40 63 21 63 -1040 l0 -960 -580 0
-580 0 2 963 c3 909 4 964 21 990 10 16 32 37 50 47 31 19 54 20 512 20 458 0
481 -1 512 -20z m-1434 -873 c23 -17 40 -41 47 -65 6 -23 10 -227 10 -549 l0
-513 -590 0 -590 0 0 515 c0 450 2 520 16 555 16 40 51 73 89 83 11 3 236 4
501 4 l481 -2 36 -28z m3439 -1429 c101 -46 105 -201 6 -255 -31 -17 -142 -18
-2367 -21 -1691 -1 -2344 1 -2375 9 -25 7 -55 26 -78 50 -33 35 -38 46 -38 88
0 40 6 54 33 85 61 70 -134 65 2447 63 2168 -2 2338 -3 2372 -19z"/>
</g>
</svg>
